<svg id="グループ_1850" data-name="グループ 1850" xmlns="http://www.w3.org/2000/svg" xmlns:xlink="http://www.w3.org/1999/xlink" width="77.248" height="73.604" viewBox="0 0 77.248 73.604">
  <defs>
    <clipPath id="clip-path">
      <rect id="長方形_2434" data-name="長方形 2434" width="77.248" height="73.604" transform="translate(0 0)" fill="none"/>
    </clipPath>
  </defs>
  <g id="グループ_1849" data-name="グループ 1849" clip-path="url(#clip-path)">
    <path id="パス_247" data-name="パス 247" d="M77.249,31.344C77.249,14.061,59.922,0,38.624,0S0,14.061,0,31.344C0,46.838,13.741,59.815,32.3,62.268c1.258.271,2.97.829,3.4,1.9a7.924,7.924,0,0,1,.125,3.492s-.453,2.725-.551,3.307c-.168.976-.776,3.819,3.345,2.082s22.244-13.1,30.347-22.425h0c5.6-6.139,8.279-12.368,8.279-19.285M25,40.571a.752.752,0,0,1-.751.753H13.422a.745.745,0,0,1-.519-.21l-.011-.01-.011-.012a.745.745,0,0,1-.21-.519V23.744a.752.752,0,0,1,.752-.752h2.71a.752.752,0,0,1,.752.752V37.11h7.361a.752.752,0,0,1,.751.752Zm6.532,0a.751.751,0,0,1-.752.75h-2.71a.751.751,0,0,1-.752-.75V23.743a.752.752,0,0,1,.752-.751h2.71a.752.752,0,0,1,.752.751Zm18.648,0a.751.751,0,0,1-.752.75H46.716a.762.762,0,0,1-.193-.025l-.011,0a.5.5,0,0,1-.051-.016.219.219,0,0,1-.023-.009.389.389,0,0,1-.036-.015.3.3,0,0,1-.036-.017l-.022-.012L46.3,41.2l-.008-.006a.749.749,0,0,1-.191-.186L38.377,30.578v10a.751.751,0,0,1-.753.75H34.915a.751.751,0,0,1-.752-.75V23.743a.752.752,0,0,1,.752-.751h2.736l.039,0a.26.26,0,0,1,.039,0l.032,0,.043.01.026.006.045.015.024.009a.447.447,0,0,1,.044.018l.023.011.041.023.022.013.039.027a.156.156,0,0,1,.02.016c.014.01.027.022.04.033l.014.013.045.046.005,0a.8.8,0,0,1,.058.076l7.713,10.416v-10a.752.752,0,0,1,.753-.751h2.709a.752.752,0,0,1,.752.751Zm14.96-14.119a.751.751,0,0,1-.751.752H57.025v2.845h7.361a.752.752,0,0,1,.751.753v2.708a.752.752,0,0,1-.751.753H57.025V37.11h7.361a.752.752,0,0,1,.751.752v2.71a.752.752,0,0,1-.751.752H53.562a.751.751,0,0,1-.52-.21l-.011-.01-.01-.012a.743.743,0,0,1-.21-.519h0V23.745h0a.749.749,0,0,1,.208-.518l.012-.014.009-.008a.749.749,0,0,1,.522-.212H64.386a.752.752,0,0,1,.751.753Z" fill="#fff"/>
  </g>
</svg>
